<?xml version="1.0" standalone="no"?>
<svg xmlns="http://www.w3.org/2000/svg" xmlns:xlink="http://www.w3.org/1999/xlink" width="207.20000000000002px" height="218.4px" viewBox="0.00 0.00 222.00 234.00">
<path class="dragline hidden" d="M0,0L0,0"></path><g id="graph0" class="graph" transform="scale(1 1) rotate(0) translate(4 230)">
<!-- 1.0&#45;&gt;2.0 -->
<g id="edge23" class="edge link">
<title>1.0-&gt;2.0</title>
<path fill="none" stroke="grey" stroke-width="1.5" d="M59.83,-185.9C57.83,-183.42 55.74,-180.83 53.94,-178.61"></path>
<polygon fill="grey" stroke="grey" stroke-width="1.5" points="55.27,-177.47 50.76,-174.68 52.54,-179.67 55.27,-177.47"></polygon>
</g>
<!-- 1.0&#45;&gt;1.1 -->
<g id="edge1" class="edge order">
<title>1.0-&gt;1.1</title>
<g id="a_edge1"><a xlink:title="Move">
<path fill="none" stroke="transparent" stroke-width="12" d="M79.27,-197C85.05,-197 90.83,-197 96.6,-197"></path>
</a>
</g>
</g>
<!-- 3.0&#45;&gt;4.0 -->
<g id="edge30" class="edge link">
<title>3.0-&gt;4.0</title>
<path fill="none" stroke="grey" stroke-width="1.5" d="M40.83,-134.9C38.83,-132.42 36.74,-129.83 34.94,-127.61"></path>
<polygon fill="grey" stroke="grey" stroke-width="1.5" points="36.27,-126.47 31.76,-123.68 33.54,-128.67 36.27,-126.47"></polygon>
</g>
<!-- 3.0&#45;&gt;3.1 -->
<g id="edge3" class="edge order">
<title>3.0-&gt;3.1</title>
<g id="a_edge3"><a xlink:title="Move">
<path fill="none" stroke="transparent" stroke-width="12" d="M60.27,-146C66.05,-146 71.83,-146 77.6,-146"></path>
</a>
</g>
</g>
<!-- 5.0&#45;&gt;6.0 -->
<g id="edge40" class="edge link">
<title>5.0-&gt;6.0</title>
<path fill="none" stroke="grey" stroke-width="1.5" d="M11,-83.9C11,-82.03 11,-80.11 11,-78.32"></path>
<polygon fill="grey" stroke="grey" stroke-width="1.5" points="12.75,-78.06 11,-73.06 9.25,-78.06 12.75,-78.06"></polygon>
</g>
<!-- 5.0&#45;&gt;5.1 -->
<g id="edge6" class="edge order">
<title>5.0-&gt;5.1</title>
<g id="a_edge6"><a xlink:title="Move">
<path fill="none" stroke="transparent" stroke-width="12" d="M22.27,-95C28.05,-95 33.83,-95 39.6,-95"></path>
</a>
</g>
</g>
<!-- 7.0&#45;&gt;7.1 -->
<g id="edge11" class="edge order">
<title>7.0-&gt;7.1</title>
<g id="a_edge11"><a xlink:title="Move">
<path fill="none" stroke="transparent" stroke-width="12" d="M22.27,-44C28.05,-44 33.83,-44 39.6,-44"></path>
</a>
</g>
</g>
<!-- 1.2&#45;&gt;2.2 -->
<g id="edge25" class="edge link">
<title>1.2-&gt;2.2</title>
<path fill="none" stroke="grey" stroke-width="1.5" d="M149.87,-185.9C150.63,-183.91 151.42,-181.85 152.14,-179.97"></path>
<polygon fill="grey" stroke="grey" stroke-width="1.5" points="153.87,-180.35 154.02,-175.06 150.6,-179.1 153.87,-180.35"></polygon>
</g>
<!-- 3.3&#45;&gt;4.3 -->
<g id="edge33" class="edge link">
<title>3.3-&gt;4.3</title>
<path fill="none" stroke="grey" stroke-width="1.5" d="M173.17,-134.9C175.17,-132.42 177.26,-129.83 179.06,-127.61"></path>
<polygon fill="grey" stroke="grey" stroke-width="1.5" points="180.46,-128.67 182.24,-123.68 177.73,-126.47 180.46,-128.67"></polygon>
</g>
<!-- 5.5&#45;&gt;6.5 -->
<g id="edge49" class="edge link">
<title>5.5-&gt;6.5</title>
<path fill="none" stroke="grey" stroke-width="1.5" d="M203,-83.9C203,-82.03 203,-80.11 203,-78.32"></path>
<polygon fill="grey" stroke="grey" stroke-width="1.5" points="204.75,-78.06 203,-73.06 201.25,-78.06 204.75,-78.06"></polygon>
</g>
<!-- 0.0&#45;&gt;1.0 -->
<g id="edge20" class="edge link">
<title>0.0-&gt;1.0</title>
<path fill="none" stroke="grey" stroke-width="1.5" d="M104.44,-219.96C100.29,-217.46 91.76,-212.32 84,-207.64"></path>
<polygon fill="grey" stroke="grey" stroke-width="1.5" points="84.49,-205.89 79.31,-204.81 82.69,-208.89 84.49,-205.89"></polygon>
</g>
<!-- 0.0&#45;&gt;1.2 -->
<g id="edge22" class="edge link">
<title>0.0-&gt;1.2</title>
<path fill="none" stroke="grey" stroke-width="1.5" d="M109.56,-219.96C113.71,-217.46 122.24,-212.32 130,-207.64"></path>
<polygon fill="grey" stroke="grey" stroke-width="1.5" points="131.31,-208.89 134.69,-204.81 129.51,-205.89 131.31,-208.89"></polygon>
</g>
<!-- 0.0&#45;&gt;1.1 -->
<g id="edge21" class="edge link">
<title>0.0-&gt;1.1</title>
<path fill="none" stroke="grey" stroke-width="1.5" d="M107,-218.99C107,-217.3 107,-214.92 107,-212.38"></path>
<polygon fill="grey" stroke="grey" stroke-width="1.5" points="108.75,-212.07 107,-207.07 105.25,-212.07 108.75,-212.07"></polygon>
</g>
<!-- 2.0&#45;&gt;3.0 -->
<g id="edge26" class="edge link">
<title>2.0-&gt;3.0</title>
<path fill="none" stroke="grey" stroke-width="1.5" d="M49,-167.99C49,-166.55 49,-164.61 49,-162.49"></path>
<polygon fill="grey" stroke="grey" stroke-width="1.5" points="50.75,-162.37 49,-157.37 47.25,-162.37 50.75,-162.37"></polygon>
</g>
<!-- 2.1&#45;&gt;3.1 -->
<g id="edge27" class="edge link">
<title>2.1-&gt;3.1</title>
<path fill="none" stroke="grey" stroke-width="1.5" d="M105.25,-168.33C103.4,-166.04 100.34,-162.26 97.3,-158.51"></path>
<polygon fill="grey" stroke="grey" stroke-width="1.5" points="98.33,-157 93.83,-154.21 95.61,-159.2 98.33,-157"></polygon>
</g>
<!-- 2.1&#45;&gt;3.2 -->
<g id="edge28" class="edge link">
<title>2.1-&gt;3.2</title>
<path fill="none" stroke="grey" stroke-width="1.5" d="M108.75,-168.33C110.6,-166.04 113.66,-162.26 116.7,-158.51"></path>
<polygon fill="grey" stroke="grey" stroke-width="1.5" points="118.39,-159.2 120.17,-154.21 115.67,-157 118.39,-159.2"></polygon>
</g>
<!-- 2.2&#45;&gt;3.3 -->
<g id="edge29" class="edge link">
<title>2.2-&gt;3.3</title>
<path fill="none" stroke="grey" stroke-width="1.5" d="M156.07,-167.99C156.72,-166.47 157.6,-164.39 158.56,-162.14"></path>
<polygon fill="grey" stroke="grey" stroke-width="1.5" points="160.24,-162.65 160.59,-157.37 157.02,-161.28 160.24,-162.65"></polygon>
</g>
<!-- 4.0&#45;&gt;5.0 -->
<g id="edge34" class="edge link">
<title>4.0-&gt;5.0</title>
<path fill="none" stroke="grey" stroke-width="1.5" d="M28.25,-117.33C26.83,-115.58 24.71,-112.95 22.43,-110.14"></path>
<polygon fill="grey" stroke="grey" stroke-width="1.5" points="23.78,-109.03 19.28,-106.24 21.06,-111.23 23.78,-109.03"></polygon>
</g>
<!-- 4.1&#45;&gt;5.1 -->
<g id="edge35" class="edge link">
<title>4.1-&gt;5.1</title>
<path fill="none" stroke="grey" stroke-width="1.5" d="M85.51,-117.96C80.88,-115.1 70.69,-108.79 62.41,-103.67"></path>
<polygon fill="grey" stroke="grey" stroke-width="1.5" points="63.22,-102.12 58.05,-100.98 61.38,-105.09 63.22,-102.12"></polygon>
</g>
<!-- 4.1&#45;&gt;5.2 -->
<g id="edge36" class="edge link">
<title>4.1-&gt;5.2</title>
<path fill="none" stroke="grey" stroke-width="1.5" d="M88,-116.99C88,-115.3 88,-112.92 88,-110.38"></path>
<polygon fill="grey" stroke="grey" stroke-width="1.5" points="89.75,-110.07 88,-105.07 86.25,-110.07 89.75,-110.07"></polygon>
</g>
<!-- 4.2&#45;&gt;5.3 -->
<g id="edge37" class="edge link">
<title>4.2-&gt;5.3</title>
<path fill="none" stroke="grey" stroke-width="1.5" d="M126,-116.99C126,-115.3 126,-112.92 126,-110.38"></path>
<polygon fill="grey" stroke="grey" stroke-width="1.5" points="127.75,-110.07 126,-105.07 124.25,-110.07 127.75,-110.07"></polygon>
</g>
<!-- 4.2&#45;&gt;5.4 -->
<g id="edge38" class="edge link">
<title>4.2-&gt;5.4</title>
<path fill="none" stroke="grey" stroke-width="1.5" d="M128.49,-117.96C133.12,-115.1 143.31,-108.79 151.59,-103.67"></path>
<polygon fill="grey" stroke="grey" stroke-width="1.5" points="152.62,-105.09 155.95,-100.98 150.78,-102.12 152.62,-105.09"></polygon>
</g>
<!-- 4.3&#45;&gt;5.5 -->
<g id="edge39" class="edge link">
<title>4.3-&gt;5.5</title>
<path fill="none" stroke="grey" stroke-width="1.5" d="M185.75,-117.33C187.17,-115.58 189.29,-112.95 191.57,-110.14"></path>
<polygon fill="grey" stroke="grey" stroke-width="1.5" points="192.94,-111.23 194.72,-106.24 190.22,-109.03 192.94,-111.23"></polygon>
</g>
<!-- 6.0&#45;&gt;7.0 -->
<g id="edge50" class="edge link">
<title>6.0-&gt;7.0</title>
<path fill="none" stroke="grey" stroke-width="1.5" d="M11,-65.99C11,-64.55 11,-62.61 11,-60.49"></path>
<polygon fill="grey" stroke="grey" stroke-width="1.5" points="12.75,-60.37 11,-55.37 9.25,-60.37 12.75,-60.37"></polygon>
</g>
<!-- 6.1&#45;&gt;7.3 -->
<g id="edge51" class="edge link">
<title>6.1-&gt;7.3</title>
<path fill="none" stroke="grey" stroke-width="1.5" d="M148.69,-66.33C145.9,-63.7 141,-59.1 136.47,-54.84"></path>
<polygon fill="grey" stroke="grey" stroke-width="1.5" points="137.64,-53.54 132.8,-51.39 135.24,-56.09 137.64,-53.54"></polygon>
</g>
<!-- 6.2&#45;&gt;7.1 -->
<g id="edge52" class="edge link">
<title>6.2-&gt;7.1</title>
<path fill="none" stroke="grey" stroke-width="1.5" d="M50,-65.99C50,-64.3 50,-61.92 50,-59.38"></path>
<polygon fill="grey" stroke="grey" stroke-width="1.5" points="51.75,-59.07 50,-54.07 48.25,-59.07 51.75,-59.07"></polygon>
</g>
<!-- 6.3&#45;&gt;7.2 -->
<g id="edge53" class="edge link">
<title>6.3-&gt;7.2</title>
<path fill="none" stroke="grey" stroke-width="1.5" d="M88,-65.99C88,-64.3 88,-61.92 88,-59.38"></path>
<polygon fill="grey" stroke="grey" stroke-width="1.5" points="89.75,-59.07 88,-54.07 86.25,-59.07 89.75,-59.07"></polygon>
</g>
<!-- 6.4&#45;&gt;7.4 -->
<g id="edge54" class="edge link">
<title>6.4-&gt;7.4</title>
<path fill="none" stroke="grey" stroke-width="1.5" d="M128.49,-66.96C133.12,-64.1 143.31,-57.79 151.59,-52.67"></path>
<polygon fill="grey" stroke="grey" stroke-width="1.5" points="152.62,-54.09 155.95,-49.98 150.78,-51.12 152.62,-54.09"></polygon>
</g>
<!-- 6.5&#45;&gt;7.5 -->
<g id="edge55" class="edge link">
<title>6.5-&gt;7.5</title>
<path fill="none" stroke="grey" stroke-width="1.5" d="M203,-65.99C203,-64.55 203,-62.61 203,-60.49"></path>
<polygon fill="grey" stroke="grey" stroke-width="1.5" points="204.75,-60.37 203,-55.37 201.25,-60.37 204.75,-60.37"></polygon>
</g>
<!-- 1.1&#45;&gt;1.2 -->
<g id="edge2" class="edge order">
<title>1.1-&gt;1.2</title>
<g id="a_edge2"><a xlink:title="Move">
<path fill="none" stroke="transparent" stroke-width="12" d="M117.05,-197C122.93,-197 128.81,-197 134.69,-197"></path>
</a>
</g>
</g>
<!-- 1.1&#45;&gt;2.1 -->
<g id="edge24" class="edge link">
<title>1.1-&gt;2.1</title>
<path fill="none" stroke="grey" stroke-width="1.5" d="M107,-186.98C107,-184.91 107,-182.72 107,-180.69"></path>
<polygon fill="grey" stroke="grey" stroke-width="1.5" points="108.75,-180.33 107,-175.33 105.25,-180.33 108.75,-180.33"></polygon>
</g>
<!-- 3.1&#45;&gt;4.1 -->
<g id="edge31" class="edge link">
<title>3.1-&gt;4.1</title>
<path fill="none" stroke="grey" stroke-width="1.5" d="M88,-135.98C88,-133.91 88,-131.72 88,-129.69"></path>
<polygon fill="grey" stroke="grey" stroke-width="1.5" points="89.75,-129.33 88,-124.33 86.25,-129.33 89.75,-129.33"></polygon>
</g>
<!-- 3.1&#45;&gt;3.2 -->
<g id="edge4" class="edge order">
<title>3.1-&gt;3.2</title>
<g id="a_edge4"><a xlink:title="Move">
<path fill="none" stroke="transparent" stroke-width="12" d="M98.09,-146C104.05,-146 110.01,-146 115.97,-146"></path>
</a>
</g>
</g>
<!-- 3.2&#45;&gt;3.3 -->
<g id="edge5" class="edge order">
<title>3.2-&gt;3.3</title>
<g id="a_edge5"><a xlink:title="Move">
<path fill="none" stroke="transparent" stroke-width="12" d="M136.05,-146C141.93,-146 147.81,-146 153.69,-146"></path>
</a>
</g>
</g>
<!-- 3.2&#45;&gt;4.2 -->
<g id="edge32" class="edge link">
<title>3.2-&gt;4.2</title>
<path fill="none" stroke="grey" stroke-width="1.5" d="M126,-135.98C126,-133.91 126,-131.72 126,-129.69"></path>
<polygon fill="grey" stroke="grey" stroke-width="1.5" points="127.75,-129.33 126,-124.33 124.25,-129.33 127.75,-129.33"></polygon>
</g>
<!-- 5.1&#45;&gt;6.2 -->
<g id="edge41" class="edge link">
<title>5.1-&gt;6.2</title>
<path fill="none" stroke="grey" stroke-width="1.5" d="M50,-84.98C50,-82.91 50,-80.72 50,-78.69"></path>
<polygon fill="grey" stroke="grey" stroke-width="1.5" points="51.75,-78.33 50,-73.33 48.25,-78.33 51.75,-78.33"></polygon>
</g>
<!-- 5.1&#45;&gt;6.4 -->
<g id="edge42" class="edge link">
<title>5.1-&gt;6.4</title>
<path fill="none" stroke="grey" stroke-width="1.5" d="M58.3,-89.05C61.55,-87.27 65.37,-85.36 69,-84 85.71,-77.74 106.28,-73.72 117.58,-71.81"></path>
<polygon fill="grey" stroke="grey" stroke-width="1.5" points="117.91,-73.53 122.57,-71 117.36,-70.07 117.91,-73.53"></polygon>
</g>
<!-- 5.1&#45;&gt;5.2 -->
<g id="edge7" class="edge order">
<title>5.1-&gt;5.2</title>
<g id="a_edge7"><a xlink:title="Move">
<path fill="none" stroke="transparent" stroke-width="12" d="M60.09,-95C66.05,-95 72.01,-95 77.97,-95"></path>
</a>
</g>
</g>
<!-- 5.2&#45;&gt;6.2 -->
<g id="edge43" class="edge link">
<title>5.2-&gt;6.2</title>
<path fill="none" stroke="grey" stroke-width="1.5" d="M79.94,-89.02C73.27,-84.89 63.87,-79.08 57.39,-75.07"></path>
<polygon fill="grey" stroke="grey" stroke-width="1.5" points="57.93,-73.35 52.76,-72.2 56.09,-76.32 57.93,-73.35"></polygon>
</g>
<!-- 5.2&#45;&gt;6.3 -->
<g id="edge44" class="edge link">
<title>5.2-&gt;6.3</title>
<path fill="none" stroke="grey" stroke-width="1.5" d="M88,-84.98C88,-82.91 88,-80.72 88,-78.69"></path>
<polygon fill="grey" stroke="grey" stroke-width="1.5" points="89.75,-78.33 88,-73.33 86.25,-78.33 89.75,-78.33"></polygon>
</g>
<!-- 5.2&#45;&gt;5.3 -->
<g id="edge8" class="edge order">
<title>5.2-&gt;5.3</title>
<g id="a_edge8"><a xlink:title="Move">
<path fill="none" stroke="transparent" stroke-width="12" d="M98.09,-95C104.05,-95 110.01,-95 115.97,-95"></path>
</a>
</g>
</g>
<!-- 5.3&#45;&gt;6.1 -->
<g id="edge45" class="edge link">
<title>5.3-&gt;6.1</title>
<path fill="none" stroke="grey" stroke-width="1.5" d="M132.83,-87.58C136.66,-83.98 141.38,-79.55 145.05,-76.09"></path>
<polygon fill="grey" stroke="grey" stroke-width="1.5" points="146.31,-77.31 148.76,-72.61 143.92,-74.76 146.31,-77.31"></polygon>
</g>
<!-- 5.3&#45;&gt;6.3 -->
<g id="edge46" class="edge link">
<title>5.3-&gt;6.3</title>
<path fill="none" stroke="grey" stroke-width="1.5" d="M117.94,-89.02C111.27,-84.89 101.87,-79.08 95.39,-75.07"></path>
<polygon fill="grey" stroke="grey" stroke-width="1.5" points="95.93,-73.35 90.76,-72.2 94.09,-76.32 95.93,-73.35"></polygon>
</g>
<!-- 5.3&#45;&gt;5.4 -->
<g id="edge9" class="edge order">
<title>5.3-&gt;5.4</title>
<g id="a_edge9"><a xlink:title="Move">
<path fill="none" stroke="transparent" stroke-width="12" d="M136.09,-95C142.05,-95 148.01,-95 153.97,-95"></path>
</a>
</g>
</g>
<!-- 5.4&#45;&gt;5.5 -->
<g id="edge10" class="edge order">
<title>5.4-&gt;5.5</title>
<g id="a_edge10"><a xlink:title="Move">
<path fill="none" stroke="transparent" stroke-width="12" d="M174.05,-95C179.93,-95 185.81,-95 191.69,-95"></path>
</a>
</g>
</g>
<!-- 5.4&#45;&gt;6.1 -->
<g id="edge47" class="edge link">
<title>5.4-&gt;6.1</title>
<path fill="none" stroke="grey" stroke-width="1.5" d="M159.45,-85.78C157.99,-83.14 156.39,-80.24 154.97,-77.68"></path>
<polygon fill="grey" stroke="grey" stroke-width="1.5" points="156.39,-76.63 152.44,-73.1 153.33,-78.32 156.39,-76.63"></polygon>
</g>
<!-- 5.4&#45;&gt;6.4 -->
<g id="edge48" class="edge link">
<title>5.4-&gt;6.4</title>
<path fill="none" stroke="grey" stroke-width="1.5" d="M155.94,-89.02C149.27,-84.89 139.87,-79.08 133.39,-75.07"></path>
<polygon fill="grey" stroke="grey" stroke-width="1.5" points="133.93,-73.35 128.76,-72.2 132.09,-76.32 133.93,-73.35"></polygon>
</g>
<!-- 7.1&#45;&gt;7.2 -->
<g id="edge12" class="edge order">
<title>7.1-&gt;7.2</title>
<g id="a_edge12"><a xlink:title="Move">
<path fill="none" stroke="transparent" stroke-width="12" d="M60.09,-44C66.05,-44 72.01,-44 77.97,-44"></path>
</a>
</g>
</g>
<!-- 7.1&#45;&gt;F1 -->
<g id="edge18" class="edge link">
<title>7.1-&gt;F1</title>
<path fill="none" stroke="grey" stroke-width="1.5" d="M54.47,-34.86C55.79,-32.43 57.29,-29.7 58.78,-26.99"></path>
<polygon fill="grey" stroke="grey" stroke-width="1.5" points="60.54,-27.42 61.41,-22.2 57.47,-25.74 60.54,-27.42"></polygon>
</g>
<!-- 7.2&#45;&gt;7.3 -->
<g id="edge13" class="edge order">
<title>7.2-&gt;7.3</title>
<g id="a_edge13"><a xlink:title="Move">
<path fill="none" stroke="transparent" stroke-width="12" d="M98.09,-44C104.05,-44 110.01,-44 115.97,-44"></path>
</a>
</g>
</g>
<!-- 7.2&#45;&gt;F0 -->
<g id="edge16" class="edge link">
<title>7.2-&gt;F0</title>
<path fill="none" stroke="grey" stroke-width="1.5" d="M96.51,-38.52C99.79,-36.79 103.57,-34.8 107,-33 113.64,-29.51 120.9,-25.7 127.39,-22.29"></path>
<polygon fill="grey" stroke="grey" stroke-width="1.5" points="128.57,-23.65 132.18,-19.78 126.94,-20.55 128.57,-23.65"></polygon>
</g>
<!-- 7.3&#45;&gt;7.4 -->
<g id="edge14" class="edge order">
<title>7.3-&gt;7.4</title>
<g id="a_edge14"><a xlink:title="Move">
<path fill="none" stroke="transparent" stroke-width="12" d="M136.09,-44C142.05,-44 148.01,-44 153.97,-44"></path>
</a>
</g>
</g>
<!-- 7.3&#45;&gt;F1 -->
<g id="edge19" class="edge link">
<title>7.3-&gt;F1</title>
<path fill="none" stroke="grey" stroke-width="1.5" d="M117.49,-38.52C114.21,-36.79 110.43,-34.8 107,-33 100.36,-29.51 93.1,-25.7 86.61,-22.29"></path>
<polygon fill="grey" stroke="grey" stroke-width="1.5" points="87.06,-20.55 81.82,-19.78 85.43,-23.65 87.06,-20.55"></polygon>
</g>
<!-- 7.4&#45;&gt;7.5 -->
<g id="edge15" class="edge order">
<title>7.4-&gt;7.5</title>
<g id="a_edge15"><a xlink:title="Move">
<path fill="none" stroke="transparent" stroke-width="12" d="M174.05,-44C179.93,-44 185.81,-44 191.69,-44"></path>
</a>
</g>
</g>
<!-- 7.4&#45;&gt;F0 -->
<g id="edge17" class="edge link">
<title>7.4-&gt;F0</title>
<path fill="none" stroke="grey" stroke-width="1.5" d="M159.53,-34.86C158.21,-32.43 156.71,-29.7 155.22,-26.99"></path>
<polygon fill="grey" stroke="grey" stroke-width="1.5" points="156.53,-25.74 152.59,-22.2 153.46,-27.42 156.53,-25.74"></polygon>
</g>
<!-- 1.0 -->
<g id="node1" class="node observer">
<title>1.0</title>
<polygon fill="white" stroke="grey" points="79,-208 57,-208 57,-186 79,-186 79,-208"></polygon>
<text text-anchor="middle" x="68" y="-194" font-family="Helvetica,sans-Serif" font-size="10.00" fill="#595959">X</text>
<use xlink:href="#obs" x="60" y="-205" width="16" height="16"></use></g>
<!-- 3.0 -->
<g id="node2" class="node observer">
<title>3.0</title>
<polygon fill="white" stroke="grey" points="60,-157 38,-157 38,-135 60,-135 60,-157"></polygon>
<text text-anchor="middle" x="49" y="-143" font-family="Helvetica,sans-Serif" font-size="10.00" fill="#595959">X</text>
<use xlink:href="#obs" x="41" y="-154" width="16" height="16"></use></g>
<!-- 5.0 -->
<g id="node3" class="node observer">
<title>5.0</title>
<polygon fill="white" stroke="grey" points="22,-106 0,-106 0,-84 22,-84 22,-106"></polygon>
<text text-anchor="middle" x="11" y="-92" font-family="Helvetica,sans-Serif" font-size="10.00" fill="#595959">X</text>
<use xlink:href="#obs" x="3" y="-103" width="16" height="16"></use></g>
<!-- 7.0 -->
<g id="node4" class="node observer">
<title>7.0</title>
<polygon fill="white" stroke="grey" points="22,-55 0,-55 0,-33 22,-33 22,-55"></polygon>
<text text-anchor="middle" x="11" y="-41" font-family="Helvetica,sans-Serif" font-size="10.00" fill="#595959">X</text>
<use xlink:href="#obs" x="3" y="-52" width="16" height="16"></use></g>
<!-- 1.2 -->
<g id="node5" class="node environment">
<title>1.2</title>
<polygon fill="white" stroke="grey" points="157,-208 135,-208 135,-186 157,-186 157,-208"></polygon>
<text text-anchor="middle" x="146" y="-194" font-family="Helvetica,sans-Serif" font-size="10.00" fill="#595959">E</text>
<use xlink:href="#env" x="138" y="-205" width="16" height="16"></use></g>
<!-- 3.3 -->
<g id="node6" class="node environment">
<title>3.3</title>
<polygon fill="white" stroke="grey" points="176,-157 154,-157 154,-135 176,-135 176,-157"></polygon>
<text text-anchor="middle" x="165" y="-143" font-family="Helvetica,sans-Serif" font-size="10.00" fill="#595959">E</text>
<use xlink:href="#env" x="157" y="-154" width="16" height="16"></use></g>
<!-- 5.5 -->
<g id="node7" class="node environment">
<title>5.5</title>
<polygon fill="white" stroke="grey" points="214,-106 192,-106 192,-84 214,-84 214,-106"></polygon>
<text text-anchor="middle" x="203" y="-92" font-family="Helvetica,sans-Serif" font-size="10.00" fill="#595959">E</text>
<use xlink:href="#env" x="195" y="-103" width="16" height="16"></use></g>
<!-- 7.5 -->
<g id="node8" class="node environment">
<title>7.5</title>
<polygon fill="white" stroke="grey" points="214,-55 192,-55 192,-33 214,-33 214,-55"></polygon>
<text text-anchor="middle" x="203" y="-41" font-family="Helvetica,sans-Serif" font-size="10.00" fill="#595959">E</text>
<use xlink:href="#env" x="195" y="-52" width="16" height="16"></use></g>
<!-- 0.0 -->
<g id="node9" class="node event">
<title>0.0</title>
<ellipse fill="grey" stroke="grey" stroke-width="0" cx="107" cy="-222.5" rx="3.5" ry="3.5"></ellipse>
</g>
<!-- 2.0 -->
<g id="node10" class="node event">
<title>2.0</title>
<ellipse fill="grey" stroke="grey" stroke-width="0" cx="49" cy="-171.5" rx="3.5" ry="3.5"></ellipse>
</g>
<!-- 2.1 -->
<g id="node11" class="node event">
<title>2.1</title>
<ellipse fill="grey" stroke="grey" stroke-width="0" cx="107" cy="-171.5" rx="3.5" ry="3.5"></ellipse>
</g>
<!-- 2.2 -->
<g id="node12" class="node event">
<title>2.2</title>
<ellipse fill="grey" stroke="grey" stroke-width="0" cx="155" cy="-171.5" rx="3.5" ry="3.5"></ellipse>
</g>
<!-- 4.0 -->
<g id="node13" class="node event">
<title>4.0</title>
<ellipse fill="grey" stroke="grey" stroke-width="0" cx="30" cy="-120.5" rx="3.5" ry="3.5"></ellipse>
</g>
<!-- 4.1 -->
<g id="node14" class="node event">
<title>4.1</title>
<ellipse fill="grey" stroke="grey" stroke-width="0" cx="88" cy="-120.5" rx="3.5" ry="3.5"></ellipse>
</g>
<!-- 4.2 -->
<g id="node15" class="node event">
<title>4.2</title>
<ellipse fill="grey" stroke="grey" stroke-width="0" cx="126" cy="-120.5" rx="3.5" ry="3.5"></ellipse>
</g>
<!-- 4.3 -->
<g id="node16" class="node event">
<title>4.3</title>
<ellipse fill="grey" stroke="grey" stroke-width="0" cx="184" cy="-120.5" rx="3.5" ry="3.5"></ellipse>
</g>
<!-- 6.0 -->
<g id="node17" class="node event">
<title>6.0</title>
<ellipse fill="grey" stroke="grey" stroke-width="0" cx="11" cy="-69.5" rx="3.5" ry="3.5"></ellipse>
</g>
<!-- 6.1 -->
<g id="node18" class="node event">
<title>6.1</title>
<ellipse fill="grey" stroke="grey" stroke-width="0" cx="151" cy="-69.5" rx="3.5" ry="3.5"></ellipse>
<text text-anchor="middle" x="143.33" y="-76" font-family="Helvetica,sans-Serif" font-size="10.00" fill="#595959">↓</text>
</g>
<!-- 6.2 -->
<g id="node19" class="node event">
<title>6.2</title>
<ellipse fill="grey" stroke="grey" stroke-width="0" cx="50" cy="-69.5" rx="3.5" ry="3.5"></ellipse>
<text text-anchor="middle" x="42.33" y="-76" font-family="Helvetica,sans-Serif" font-size="10.00" fill="#595959">↑</text>
</g>
<!-- 6.3 -->
<g id="node20" class="node event">
<title>6.3</title>
<ellipse fill="grey" stroke="grey" stroke-width="0" cx="88" cy="-69.5" rx="3.5" ry="3.5"></ellipse>
<text text-anchor="middle" x="80.33" y="-76" font-family="Helvetica,sans-Serif" font-size="10.00" fill="#595959">↓</text>
</g>
<!-- 6.4 -->
<g id="node21" class="node event">
<title>6.4</title>
<ellipse fill="grey" stroke="grey" stroke-width="0" cx="126" cy="-69.5" rx="3.5" ry="3.5"></ellipse>
<text text-anchor="middle" x="118.33" y="-76" font-family="Helvetica,sans-Serif" font-size="10.00" fill="#595959">↑</text>
</g>
<!-- 6.5 -->
<g id="node22" class="node event">
<title>6.5</title>
<ellipse fill="grey" stroke="grey" stroke-width="0" cx="203" cy="-69.5" rx="3.5" ry="3.5"></ellipse>
</g>
<!-- 1.1 -->
<g id="node23" class="node token">
<title>1.1</title>
<ellipse fill="#b30000" stroke="white" stroke-width="0" cx="107" cy="-197" rx="10" ry="10"></ellipse>
<text text-anchor="middle" x="107" y="-194" font-family="Helvetica,sans-Serif" font-size="10.00" fill="#000000">1</text>
</g>
<!-- 3.1 -->
<g id="node24" class="node token">
<title>3.1</title>
<ellipse fill="#b30000" stroke="white" stroke-width="0" cx="88" cy="-146" rx="10" ry="10"></ellipse>
<text text-anchor="middle" x="88" y="-143" font-family="Helvetica,sans-Serif" font-size="10.00" fill="#000000">1</text>
<text text-anchor="middle" x="74.67" y="-159" font-family="Helvetica,sans-Serif" font-size="10.00" fill="#000000">A</text>
</g>
<!-- 3.2 -->
<g id="node25" class="node token">
<title>3.2</title>
<ellipse fill="#b30000" stroke="white" stroke-width="0" cx="126" cy="-146" rx="10" ry="10"></ellipse>
<text text-anchor="middle" x="126" y="-143" font-family="Helvetica,sans-Serif" font-size="10.00" fill="#000000">1</text>
<text text-anchor="middle" x="112.67" y="-159" font-family="Helvetica,sans-Serif" font-size="10.00" fill="#000000">B</text>
</g>
<!-- 5.1 -->
<g id="node26" class="node token">
<title>5.1</title>
<ellipse fill="#b30000" stroke="white" stroke-width="0" cx="50" cy="-95" rx="10" ry="10"></ellipse>
<text text-anchor="middle" x="50" y="-92" font-family="Helvetica,sans-Serif" font-size="10.00" fill="#000000">1</text>
</g>
<!-- 5.2 -->
<g id="node27" class="node token">
<title>5.2</title>
<ellipse fill="#b30000" stroke="white" stroke-width="0" cx="88" cy="-95" rx="10" ry="10"></ellipse>
<text text-anchor="middle" x="88" y="-92" font-family="Helvetica,sans-Serif" font-size="10.00" fill="#000000">1</text>
</g>
<!-- 5.3 -->
<g id="node28" class="node token">
<title>5.3</title>
<ellipse fill="#b30000" stroke="white" stroke-width="0" cx="126" cy="-95" rx="10" ry="10"></ellipse>
<text text-anchor="middle" x="126" y="-92" font-family="Helvetica,sans-Serif" font-size="10.00" fill="#000000">1</text>
</g>
<!-- 5.4 -->
<g id="node29" class="node token">
<title>5.4</title>
<ellipse fill="#b30000" stroke="white" stroke-width="0" cx="164" cy="-95" rx="10" ry="10"></ellipse>
<text text-anchor="middle" x="164" y="-92" font-family="Helvetica,sans-Serif" font-size="10.00" fill="#000000">1</text>
</g>
<!-- 7.1 -->
<g id="node30" class="node token">
<title>7.1</title>
<ellipse fill="#fc8d59" stroke="white" stroke-width="0" cx="50" cy="-44" rx="10" ry="10"></ellipse>
<text text-anchor="middle" x="50" y="-41" font-family="Helvetica,sans-Serif" font-size="10.00" fill="#000000">.5</text>
</g>
<!-- 7.2 -->
<g id="node31" class="node token">
<title>7.2</title>
<ellipse fill="#fc8d59" stroke="white" stroke-width="0" cx="88" cy="-44" rx="10" ry="10"></ellipse>
<text text-anchor="middle" x="88" y="-41" font-family="Helvetica,sans-Serif" font-size="10.00" fill="#000000">.5</text>
</g>
<!-- 7.3 -->
<g id="node32" class="node token">
<title>7.3</title>
<ellipse fill="#fc8d59" stroke="white" stroke-width="0" cx="126" cy="-44" rx="10" ry="10"></ellipse>
<text text-anchor="middle" x="126" y="-41" font-family="Helvetica,sans-Serif" font-size="10.00" fill="#000000">.5</text>
</g>
<!-- 7.4 -->
<g id="node33" class="node token">
<title>7.4</title>
<ellipse fill="#fc8d59" stroke="white" stroke-width="0" cx="164" cy="-44" rx="10" ry="10"></ellipse>
<text text-anchor="middle" x="164" y="-41" font-family="Helvetica,sans-Serif" font-size="10.00" fill="#000000">.5</text>
</g>
<!-- F0 -->
<g id="node34" class="node state">
<title>F0</title>
<polygon fill="#fc8d59" stroke="white" stroke-width="0" points="161.5,-22 132.5,-22 132.5,0 161.5,0 161.5,-22"></polygon>
<text text-anchor="middle" x="147" y="-8" font-family="Helvetica,sans-Serif" font-size="10.00" fill="#000000">50%</text>
</g>
<!-- F1 -->
<g id="node35" class="node state">
<title>F1</title>
<polygon fill="#fc8d59" stroke="white" stroke-width="0" points="81.5,-22 52.5,-22 52.5,0 81.5,0 81.5,-22"></polygon>
<text text-anchor="middle" x="67" y="-8" font-family="Helvetica,sans-Serif" font-size="10.00" fill="#000000">50%</text>
</g>
</g>
<defs>
        <marker id="end-arrow" viewBox="0 -5 10 10" refX="6" markerWidth="3" markerHeight="3" orient="auto">
          <path d="M0,-5L10,0L0,5" fill="gray"></path>
        </marker>
        <symbol id="obs" viewBox="0 0 24 24">
          <rect x="0" y="0" width="24" height="24" fill="white"></rect>
          <path fill-rule="evenodd" clip-rule="evenodd" d="M16 7C16 9.20914 14.2091 11 12 11C9.79086 11 8 9.20914 8 7C8 4.79086 9.79086 3 12 3C14.2091 3 16 4.79086 16 7ZM14 7C14 8.10457 13.1046 9 12 9C10.8954 9 10 8.10457 10 7C10 5.89543 10.8954 5 12 5C13.1046 5 14 5.89543 14 7Z" fill="grey"></path>
          <path d="M16 15C16 14.4477 15.5523 14 15 14H9C8.44772 14 8 14.4477 8 15V21H6V15C6 13.3431 7.34315 12 9 12H15C16.6569 12 18 13.3431 18 15V21H16V15Z" fill="grey"></path>
        </symbol>
        <symbol id="env" viewBox="0 0 24 24">
          <rect x="0" y="0" width="24" height="24" fill="white"></rect>
          <path fill-rule="evenodd" clip-rule="evenodd" d="M12 16C14.2091 16 16 14.2091 16 12C16 9.79086 14.2091 8 12 8C9.79086 8 8 9.79086 8 12C8 14.2091 9.79086 16 12 16ZM12 18C15.3137 18 18 15.3137 18 12C18 8.68629 15.3137 6 12 6C8.68629 6 6 8.68629 6 12C6 15.3137 8.68629 18 12 18Z" fill="grey"></path>
          <path fill-rule="evenodd" clip-rule="evenodd" d="M11 0H13V4.06189C12.6724 4.02104 12.3387 4 12 4C11.6613 4 11.3276 4.02104 11 4.06189V0ZM7.0943 5.68018L4.22173 2.80761L2.80752 4.22183L5.6801 7.09441C6.09071 6.56618 6.56608 6.0908 7.0943 5.68018ZM4.06189 11H0V13H4.06189C4.02104 12.6724 4 12.3387 4 12C4 11.6613 4.02104 11.3276 4.06189 11ZM5.6801 16.9056L2.80751 19.7782L4.22173 21.1924L7.0943 18.3198C6.56608 17.9092 6.09071 17.4338 5.6801 16.9056ZM11 19.9381V24H13V19.9381C12.6724 19.979 12.3387 20 12 20C11.6613 20 11.3276 19.979 11 19.9381ZM16.9056 18.3199L19.7781 21.1924L21.1923 19.7782L18.3198 16.9057C17.9092 17.4339 17.4338 17.9093 16.9056 18.3199ZM19.9381 13H24V11H19.9381C19.979 11.3276 20 11.6613 20 12C20 12.3387 19.979 12.6724 19.9381 13ZM18.3198 7.0943L21.1923 4.22183L19.7781 2.80762L16.9056 5.6801C17.4338 6.09071 17.9092 6.56608 18.3198 7.0943Z" fill="grey"></path>
        </symbol>
      </defs></svg>