<?xml version="1.0" standalone="no"?>
<svg xmlns="http://www.w3.org/2000/svg" xmlns:xlink="http://www.w3.org/1999/xlink" width="346.6666666666667px" height="244px" viewBox="0.00 0.00 260.00 183.00">
<path class="dragline hidden" d="M0,0L0,0"></path><g id="graph0" class="graph" transform="scale(1 1) rotate(0) translate(4 179)">
<!-- 1.0&#45;&gt;2.0 -->
<g id="edge23" class="edge link">
<title>1.0-&gt;2.0</title>
<path fill="none" stroke="grey" stroke-width="1.5" d="M75.8,-138.08C69.37,-134.1 61.49,-129.22 55.94,-125.79"></path>
<polygon fill="grey" stroke="grey" stroke-width="1.5" points="56.78,-124.26 51.61,-123.12 54.94,-127.23 56.78,-124.26"></polygon>
</g>
<!-- 1.0&#45;&gt;1.1 -->
<g id="edge1" class="edge order">
<title>1.0-&gt;1.1</title>
<g id="a_edge1"><a xlink:title="Move">
<path fill="none" stroke="transparent" stroke-width="12" d="M98.27,-146C104.05,-146 109.83,-146 115.6,-146"></path>
</a>
</g>
</g>
<!-- 3.0&#45;&gt;4.0 -->
<g id="edge33" class="edge link">
<title>3.0-&gt;4.0</title>
<path fill="none" stroke="grey" stroke-width="1.5" d="M11,-83.9C11,-82.03 11,-80.11 11,-78.32"></path>
<polygon fill="grey" stroke="grey" stroke-width="1.5" points="12.75,-78.06 11,-73.06 9.25,-78.06 12.75,-78.06"></polygon>
</g>
<!-- 3.0&#45;&gt;3.1 -->
<g id="edge25" class="edge link">
<title>1.2-&gt;2.2</title>
<path fill="none" stroke="grey" stroke-width="1.5" d="M176.2,-138.08C182.63,-134.1 190.51,-129.22 196.06,-125.79"></path>
<polygon fill="grey" stroke="grey" stroke-width="1.5" points="197.06,-127.23 200.39,-123.12 195.22,-124.26 197.06,-127.23"></polygon>
</g><g id="edge3" class="edge order">
<title>3.0-&gt;3.1</title>
<g id="a_edge3"><a xlink:title="Move">
<path fill="none" stroke="transparent" stroke-width="12" d="M22.27,-95C28.05,-95 33.83,-95 39.6,-95"></path>
</a>
</g>
</g>
<!-- 5.0&#45;&gt;6.0 -->
<g id="edge9" class="edge order">
<title>5.0-&gt;5.1</title>
<g id="a_edge9"><a xlink:title="Move">
<path fill="none" stroke="transparent" stroke-width="12" d="M22.27,-44C28.05,-44 33.83,-44 39.6,-44"></path>
</a>
</g>
</g>
<!-- 5.0&#45;&gt;5.1 -->

<!-- 7.0&#45;&gt;7.1 -->
<g id="edge39" class="edge link">
<title>3.6-&gt;4.6</title>
<path fill="none" stroke="grey" stroke-width="1.5" d="M241,-83.9C241,-82.03 241,-80.11 241,-78.32"></path>
<polygon fill="grey" stroke="grey" stroke-width="1.5" points="242.75,-78.06 241,-73.06 239.25,-78.06 242.75,-78.06"></polygon>
</g><g id="edge40" class="edge link">
<title>3.6-&gt;4.5</title>
<path fill="none" stroke="grey" stroke-width="1.5" d="M229.93,-87.33C223.31,-83.34 215.08,-78.38 209.28,-74.88"></path>
<polygon fill="grey" stroke="grey" stroke-width="1.5" points="209.93,-73.23 204.74,-72.15 208.12,-76.23 209.93,-73.23"></polygon>
</g><g id="edge41" class="edge link">
<title>3.6-&gt;4.3</title>
<path fill="none" stroke="grey" stroke-width="1.5" d="M229.84,-87.63C227.03,-86.25 223.96,-84.92 221,-84 204.86,-78.96 154.58,-73.43 134.45,-71.35"></path>
<polygon fill="grey" stroke="grey" stroke-width="1.5" points="134.4,-69.58 129.25,-70.82 134.04,-73.07 134.4,-69.58"></polygon>
</g><g id="edge42" class="edge link">
<title>3.6-&gt;4.1</title>
<path fill="none" stroke="grey" stroke-width="1.5" d="M229.88,-87.49C227.07,-86.11 223.99,-84.83 221,-84 158.27,-66.68 139.82,-78.68 75,-73 69.5,-72.52 63.33,-71.9 58.49,-71.4"></path>
<polygon fill="grey" stroke="grey" stroke-width="1.5" points="58.39,-69.63 53.23,-70.85 58.02,-73.11 58.39,-69.63"></polygon>
</g>
<!-- 1.2&#45;&gt;2.2 -->
<g id="edge26" class="edge link">
<title>2.0-&gt;3.0</title>
<path fill="none" stroke="grey" stroke-width="1.5" d="M46.51,-117.96C42.46,-115.46 34.15,-110.32 26.58,-105.64"></path>
<polygon fill="grey" stroke="grey" stroke-width="1.5" points="27.19,-103.95 22.02,-102.81 25.35,-106.93 27.19,-103.95"></polygon>
</g><g id="edge43" class="edge link">
<title>3.6-&gt;4.2</title>
<path fill="none" stroke="grey" stroke-width="1.5" d="M229.87,-87.55C227.05,-86.17 223.98,-84.87 221,-84 220.25,-83.78 125.56,-74.27 96.43,-71.35"></path>
<polygon fill="grey" stroke="grey" stroke-width="1.5" points="96.42,-69.59 91.27,-70.83 96.07,-73.07 96.42,-69.59"></polygon>
</g>
<!-- 3.3&#45;&gt;4.3 -->

<!-- 5.5&#45;&gt;6.5 -->
<g id="edge44" class="edge link">
<title>3.6-&gt;4.4</title>
<path fill="none" stroke="grey" stroke-width="1.5" d="M229.78,-87.82C226.97,-86.43 223.92,-85.06 221,-84 204.23,-77.91 183.68,-73.83 172.4,-71.86"></path>
<polygon fill="grey" stroke="grey" stroke-width="1.5" points="172.64,-70.13 167.42,-71.03 172.06,-73.58 172.64,-70.13"></polygon>
</g>
<!-- 0.0&#45;&gt;1.0 -->
<g id="edge20" class="edge link">
<title>0.0-&gt;1.0</title>
<path fill="none" stroke="grey" stroke-width="1.5" d="M123.44,-168.96C119.29,-166.46 110.76,-161.32 103,-156.64"></path>
<polygon fill="grey" stroke="grey" stroke-width="1.5" points="103.49,-154.89 98.31,-153.81 101.69,-157.89 103.49,-154.89"></polygon>
</g>
<g id="edge22" class="edge link">
<title>0.0-&gt;1.2</title>
<path fill="none" stroke="grey" stroke-width="1.5" d="M128.56,-168.96C132.71,-166.46 141.24,-161.32 149,-156.64"></path>
<polygon fill="grey" stroke="grey" stroke-width="1.5" points="150.31,-157.89 153.69,-153.81 148.51,-154.89 150.31,-157.89"></polygon>
</g><!-- 2.1&#45;&gt;3.4 -->

<!-- 2.1&#45;&gt;3.5 -->

<!-- 2.1&#45;&gt;3.6 -->
<g id="edge32" class="edge link">
<title>2.2-&gt;3.6</title>
<path fill="none" stroke="grey" stroke-width="1.5" d="M205.49,-117.96C209.54,-115.46 217.85,-110.32 225.42,-105.64"></path>
<polygon fill="grey" stroke="grey" stroke-width="1.5" points="226.65,-106.93 229.98,-102.81 224.81,-103.95 226.65,-106.93"></polygon>
</g>
<!-- 2.2&#45;&gt;3.7 -->
<g id="edge21" class="edge link">
<title>0.0-&gt;1.1</title>
<path fill="none" stroke="grey" stroke-width="1.5" d="M126,-167.99C126,-166.3 126,-163.92 126,-161.38"></path>
<polygon fill="grey" stroke="grey" stroke-width="1.5" points="127.75,-161.07 126,-156.07 124.25,-161.07 127.75,-161.07"></polygon>
</g>
<!-- 1.1&#45;&gt;1.2 -->

<!-- 1.1&#45;&gt;2.1 -->
<g id="edge27" class="edge link">
<title>2.1-&gt;3.1</title>
<path fill="none" stroke="grey" stroke-width="1.5" d="M122.57,-119C113.57,-117.61 88.62,-113.35 69,-106 66.96,-105.23 64.86,-104.3 62.83,-103.31"></path>
<polygon fill="grey" stroke="grey" stroke-width="1.5" points="63.54,-101.7 58.3,-100.95 61.93,-104.81 63.54,-101.7"></polygon>
</g>
<!-- 3.1&#45;&gt;3.2 -->
<g id="edge45" class="edge link">
<title>4.0-&gt;5.0</title>
<path fill="none" stroke="grey" stroke-width="1.5" d="M11,-65.99C11,-64.55 11,-62.61 11,-60.49"></path>
<polygon fill="grey" stroke="grey" stroke-width="1.5" points="12.75,-60.37 11,-55.37 9.25,-60.37 12.75,-60.37"></polygon>
</g><g id="edge28" class="edge link">
<title>2.1-&gt;3.2</title>
<path fill="none" stroke="grey" stroke-width="1.5" d="M123.51,-117.96C118.88,-115.1 108.69,-108.79 100.41,-103.67"></path>
<polygon fill="grey" stroke="grey" stroke-width="1.5" points="101.22,-102.12 96.05,-100.98 99.38,-105.09 101.22,-102.12"></polygon>
</g>
<!-- 3.1&#45;&gt;F0 -->
<g id="edge29" class="edge link">
<title>2.1-&gt;3.3</title>
<path fill="none" stroke="grey" stroke-width="1.5" d="M126,-116.99C126,-115.3 126,-112.92 126,-110.38"></path>
<polygon fill="grey" stroke="grey" stroke-width="1.5" points="127.75,-110.07 126,-105.07 124.25,-110.07 127.75,-110.07"></polygon>
</g>
<!-- 3.2&#45;&gt;3.3 -->
<g id="edge30" class="edge link">
<title>2.1-&gt;3.4</title>
<path fill="none" stroke="grey" stroke-width="1.5" d="M128.49,-117.96C133.12,-115.1 143.31,-108.79 151.59,-103.67"></path>
<polygon fill="grey" stroke="grey" stroke-width="1.5" points="152.62,-105.09 155.95,-100.98 150.78,-102.12 152.62,-105.09"></polygon>
</g>
<!-- 3.2&#45;&gt;F0 -->
<g id="edge31" class="edge link">
<title>2.1-&gt;3.5</title>
<path fill="none" stroke="grey" stroke-width="1.5" d="M129.43,-119C138.43,-117.61 163.38,-113.35 183,-106 185.04,-105.23 187.14,-104.3 189.17,-103.31"></path>
<polygon fill="grey" stroke="grey" stroke-width="1.5" points="190.07,-104.81 193.7,-100.95 188.46,-101.7 190.07,-104.81"></polygon>
</g>
<!-- 3.3&#45;&gt;3.4 -->

<!-- 3.3&#45;&gt;F0 -->

<!-- 3.4&#45;&gt;3.5 -->
<g id="edge51" class="edge link">
<title>4.6-&gt;5.6</title>
<path fill="none" stroke="grey" stroke-width="1.5" d="M241,-65.99C241,-64.55 241,-62.61 241,-60.49"></path>
<polygon fill="grey" stroke="grey" stroke-width="1.5" points="242.75,-60.37 241,-55.37 239.25,-60.37 242.75,-60.37"></polygon>
</g><g id="edge46" class="edge link">
<title>4.1-&gt;5.1</title>
<path fill="none" stroke="grey" stroke-width="1.5" d="M50,-65.99C50,-64.3 50,-61.92 50,-59.38"></path>
<polygon fill="grey" stroke="grey" stroke-width="1.5" points="51.75,-59.07 50,-54.07 48.25,-59.07 51.75,-59.07"></polygon>
</g>
<!-- 3.4&#45;&gt;F0 -->
<g id="edge47" class="edge link">
<title>4.2-&gt;5.2</title>
<path fill="none" stroke="grey" stroke-width="1.5" d="M88,-65.99C88,-64.3 88,-61.92 88,-59.38"></path>
<polygon fill="grey" stroke="grey" stroke-width="1.5" points="89.75,-59.07 88,-54.07 86.25,-59.07 89.75,-59.07"></polygon>
</g>
<!-- 3.5&#45;&gt;3.6 -->
<g id="edge48" class="edge link">
<title>4.3-&gt;5.3</title>
<path fill="none" stroke="grey" stroke-width="1.5" d="M126,-65.99C126,-64.3 126,-61.92 126,-59.38"></path>
<polygon fill="grey" stroke="grey" stroke-width="1.5" points="127.75,-59.07 126,-54.07 124.25,-59.07 127.75,-59.07"></polygon>
</g>
<!-- 3.5&#45;&gt;F0 -->
<g id="edge49" class="edge link">
<title>4.4-&gt;5.4</title>
<path fill="none" stroke="grey" stroke-width="1.5" d="M164,-65.99C164,-64.3 164,-61.92 164,-59.38"></path>
<polygon fill="grey" stroke="grey" stroke-width="1.5" points="165.75,-59.07 164,-54.07 162.25,-59.07 165.75,-59.07"></polygon>
</g>
<!-- 3.6&#45;&gt;3.7 -->
<g id="edge50" class="edge link">
<title>4.5-&gt;5.5</title>
<path fill="none" stroke="grey" stroke-width="1.5" d="M202,-65.99C202,-64.3 202,-61.92 202,-59.38"></path>
<polygon fill="grey" stroke="grey" stroke-width="1.5" points="203.75,-59.07 202,-54.07 200.25,-59.07 203.75,-59.07"></polygon>
</g>
<!-- 3.6&#45;&gt;F0 -->

<!-- 1.0 -->
<!-- 5.3&#45;&gt;F0 -->
<g id="edge10" class="edge order">
<title>5.1-&gt;5.2</title>
<g id="a_edge10"><a xlink:title="Move">
<path fill="none" stroke="transparent" stroke-width="12" d="M60.09,-44C66.05,-44 72.01,-44 77.97,-44"></path>
</a>
</g>
</g>
<!-- 5.4&#45;&gt;5.5 -->
<g id="edge19" class="edge link">
<title>5.1-&gt;F4</title>
<path fill="none" stroke="grey" stroke-width="1.5" d="M45.27,-34.86C43.79,-32.31 42.12,-29.43 40.47,-26.58"></path>
<polygon fill="grey" stroke="grey" stroke-width="1.5" points="41.95,-25.64 37.92,-22.2 38.92,-27.4 41.95,-25.64"></polygon>
</g>
<!-- 5.4&#45;&gt;F0 -->
<g id="edge11" class="edge order">
<title>5.2-&gt;5.3</title>
<g id="a_edge11"><a xlink:title="Move">
<path fill="none" stroke="transparent" stroke-width="12" d="M98.09,-44C104.05,-44 110.01,-44 115.97,-44"></path>
</a>
</g>
</g>
<!-- 5.5&#45;&gt;5.6 -->
<g id="edge18" class="edge link">
<title>5.2-&gt;F3</title>
<path fill="none" stroke="grey" stroke-width="1.5" d="M85.45,-34.2C84.8,-31.99 84.1,-29.55 83.39,-27.13"></path>
<polygon fill="grey" stroke="grey" stroke-width="1.5" points="85.05,-26.56 81.98,-22.25 81.69,-27.54 85.05,-26.56"></polygon>
</g>
<!-- 5.5&#45;&gt;F0 -->
<g id="edge12" class="edge order">
<title>5.3-&gt;5.4</title>
<g id="a_edge12"><a xlink:title="Move">
<path fill="none" stroke="transparent" stroke-width="12" d="M136.09,-44C142.05,-44 148.01,-44 153.97,-44"></path>
</a>
</g>
</g>
<!-- 1.0 -->
<g id="node1" class="node observer">
<title>1.0</title>
<polygon fill="white" stroke="grey" points="98,-157 76,-157 76,-135 98,-135 98,-157"></polygon>
<text text-anchor="middle" x="87" y="-143" font-family="Helvetica,sans-Serif" font-size="10.00" fill="#595959">X</text>
<use xlink:href="#obs" x="79" y="-154" width="16" height="16"></use></g><g id="edge2" class="edge order">
<title>1.1-&gt;1.2</title>
<g id="a_edge2"><a xlink:title="Move">
<path fill="none" stroke="transparent" stroke-width="12" d="M136.05,-146C141.93,-146 147.81,-146 153.69,-146"></path>
</a>
</g>
</g>
<!-- 3.0 -->
<g id="edge17" class="edge link">
<title>5.3-&gt;F2</title>
<path fill="none" stroke="grey" stroke-width="1.5" d="M126,-33.87C126,-31.78 126,-29.5 126,-27.23"></path>
<polygon fill="grey" stroke="grey" stroke-width="1.5" points="127.75,-27.04 126,-22.04 124.25,-27.04 127.75,-27.04"></polygon>
</g>
<!-- 3.0 -->
<g id="node2" class="node observer">
<title>3.0</title>
<polygon fill="white" stroke="grey" points="22,-106 0,-106 0,-84 22,-84 22,-106"></polygon>
<text text-anchor="middle" x="11" y="-92" font-family="Helvetica,sans-Serif" font-size="10.00" fill="#595959">X</text>
<use xlink:href="#obs" x="3" y="-103" width="16" height="16"></use></g><g id="edge24" class="edge link">
<title>1.1-&gt;2.1</title>
<path fill="none" stroke="grey" stroke-width="1.5" d="M126,-135.98C126,-133.91 126,-131.72 126,-129.69"></path>
<polygon fill="grey" stroke="grey" stroke-width="1.5" points="127.75,-129.33 126,-124.33 124.25,-129.33 127.75,-129.33"></polygon>
</g>
<!-- 1.2 -->
<g id="edge13" class="edge order">
<title>5.4-&gt;5.5</title>
<g id="a_edge13"><a xlink:title="Move">
<path fill="none" stroke="transparent" stroke-width="12" d="M174.09,-44C180.05,-44 186.01,-44 191.97,-44"></path>
</a>
</g>
</g>
<!-- 5.0 -->
<g id="node3" class="node observer">
<title>5.0</title>
<polygon fill="white" stroke="grey" points="22,-55 0,-55 0,-33 22,-33 22,-55"></polygon>
<text text-anchor="middle" x="11" y="-41" font-family="Helvetica,sans-Serif" font-size="10.00" fill="#595959">X</text>
<use xlink:href="#obs" x="3" y="-52" width="16" height="16"></use></g><g id="edge16" class="edge link">
<title>5.4-&gt;F1</title>
<path fill="none" stroke="grey" stroke-width="1.5" d="M166.55,-34.2C167.2,-31.99 167.9,-29.55 168.61,-27.13"></path>
<polygon fill="grey" stroke="grey" stroke-width="1.5" points="170.31,-27.54 170.02,-22.25 166.95,-26.56 170.31,-27.54"></polygon>
</g>
<!-- 1.2 -->
<g id="node4" class="node environment">
<title>1.2</title>
<polygon fill="white" stroke="grey" points="176,-157 154,-157 154,-135 176,-135 176,-157"></polygon>
<text text-anchor="middle" x="165" y="-143" font-family="Helvetica,sans-Serif" font-size="10.00" fill="#595959">E</text>
<use xlink:href="#env" x="157" y="-154" width="16" height="16"></use></g><g id="edge34" class="edge link">
<title>3.1-&gt;4.1</title>
<path fill="none" stroke="grey" stroke-width="1.5" d="M50,-84.98C50,-82.91 50,-80.72 50,-78.69"></path>
<polygon fill="grey" stroke="grey" stroke-width="1.5" points="51.75,-78.33 50,-73.33 48.25,-78.33 51.75,-78.33"></polygon>
</g>
<!-- 3.7 -->
<g id="edge4" class="edge order">
<title>3.1-&gt;3.2</title>
<g id="a_edge4"><a xlink:title="Move">
<path fill="none" stroke="transparent" stroke-width="12" d="M60.09,-95C66.05,-95 72.01,-95 77.97,-95"></path>
</a>
</g>
</g>
<!-- 0.0 -->
<g id="edge15" class="edge link">
<title>5.5-&gt;F0</title>
<path fill="none" stroke="grey" stroke-width="1.5" d="M206.73,-34.86C208.21,-32.31 209.88,-29.43 211.53,-26.58"></path>
<polygon fill="grey" stroke="grey" stroke-width="1.5" points="213.08,-27.4 214.08,-22.2 210.05,-25.64 213.08,-27.4"></polygon>
</g>
<!-- 5.6 -->
<g id="node6" class="node environment">
<title>5.6</title>
<polygon fill="white" stroke="grey" points="252,-55 230,-55 230,-33 252,-33 252,-55"></polygon>
<text text-anchor="middle" x="241" y="-41" font-family="Helvetica,sans-Serif" font-size="10.00" fill="#595959">E</text>
<use xlink:href="#env" x="233" y="-52" width="16" height="16"></use></g>
<!-- 0.0 -->
<g id="node7" class="node event">
<title>0.0</title>
<ellipse fill="grey" stroke="grey" stroke-width="0" cx="126" cy="-171.5" rx="3.5" ry="3.5"></ellipse>
</g><g id="edge35" class="edge link">
<title>3.2-&gt;4.2</title>
<path fill="none" stroke="grey" stroke-width="1.5" d="M88,-84.98C88,-82.91 88,-80.72 88,-78.69"></path>
<polygon fill="grey" stroke="grey" stroke-width="1.5" points="89.75,-78.33 88,-73.33 86.25,-78.33 89.75,-78.33"></polygon>
</g>
<!-- 2.0 -->

<!-- 2.0 -->
<g id="node8" class="node event">
<title>2.0</title>
<ellipse fill="grey" stroke="grey" stroke-width="0" cx="49" cy="-120.5" rx="3.5" ry="3.5"></ellipse>
</g><g id="edge5" class="edge order">
<title>3.2-&gt;3.3</title>
<g id="a_edge5"><a xlink:title="Move">
<path fill="none" stroke="transparent" stroke-width="12" d="M98.09,-95C104.05,-95 110.01,-95 115.97,-95"></path>
</a>
</g>
</g>
<!-- 2.1 -->

<!-- 2.1 -->
<g id="node9" class="node event">
<title>2.1</title>
<ellipse fill="grey" stroke="grey" stroke-width="0" cx="126" cy="-120.5" rx="3.5" ry="3.5"></ellipse>
</g><g id="edge36" class="edge link">
<title>3.3-&gt;4.3</title>
<path fill="none" stroke="grey" stroke-width="1.5" d="M126,-84.98C126,-82.91 126,-80.72 126,-78.69"></path>
<polygon fill="grey" stroke="grey" stroke-width="1.5" points="127.75,-78.33 126,-73.33 124.25,-78.33 127.75,-78.33"></polygon>
</g>
<!-- 2.2 -->

<!-- 2.2 -->
<g id="node10" class="node event">
<title>2.2</title>
<ellipse fill="grey" stroke="grey" stroke-width="0" cx="203" cy="-120.5" rx="3.5" ry="3.5"></ellipse>
</g><g id="edge6" class="edge order">
<title>3.3-&gt;3.4</title>
<g id="a_edge6"><a xlink:title="Move">
<path fill="none" stroke="transparent" stroke-width="12" d="M136.09,-95C142.05,-95 148.01,-95 153.97,-95"></path>
</a>
</g>
</g>
<!-- 1.1 -->

<!-- 4.0 -->
<g id="node11" class="node event">
<title>4.0</title>
<ellipse fill="grey" stroke="grey" stroke-width="0" cx="11" cy="-69.5" rx="3.5" ry="3.5"></ellipse>
</g>
<!-- 4.1 -->
<g id="node12" class="node event">
<title>4.1</title>
<ellipse fill="grey" stroke="grey" stroke-width="0" cx="50" cy="-69.5" rx="3.5" ry="3.5"></ellipse>
</g>
<!-- 4.2 -->
<g id="node13" class="node event">
<title>4.2</title>
<ellipse fill="grey" stroke="grey" stroke-width="0" cx="88" cy="-69.5" rx="3.5" ry="3.5"></ellipse>
</g>
<!-- 4.3 -->
<g id="node14" class="node event">
<title>4.3</title>
<ellipse fill="grey" stroke="grey" stroke-width="0" cx="126" cy="-69.5" rx="3.5" ry="3.5"></ellipse>
</g>
<!-- 4.4 -->
<g id="node15" class="node event">
<title>4.4</title>
<ellipse fill="grey" stroke="grey" stroke-width="0" cx="164" cy="-69.5" rx="3.5" ry="3.5"></ellipse>
</g>
<!-- 4.5 -->
<!-- 4.5 -->
<g id="node16" class="node event">
<title>4.5</title>
<ellipse fill="grey" stroke="grey" stroke-width="0" cx="202" cy="-69.5" rx="3.5" ry="3.5"></ellipse>
</g>
<!-- 4.6 -->

<!-- 4.6 -->
<g id="node17" class="node event">
<title>4.6</title>
<ellipse fill="grey" stroke="grey" stroke-width="0" cx="241" cy="-69.5" rx="3.5" ry="3.5"></ellipse>
</g>
<!-- 1.1 -->
<g id="edge37" class="edge link">
<title>3.4-&gt;4.4</title>
<path fill="none" stroke="grey" stroke-width="1.5" d="M164,-84.98C164,-82.91 164,-80.72 164,-78.69"></path>
<polygon fill="grey" stroke="grey" stroke-width="1.5" points="165.75,-78.33 164,-73.33 162.25,-78.33 165.75,-78.33"></polygon>
</g>
<!-- 3.1 -->

<!-- 3.1 -->
<g id="edge7" class="edge order">
<title>3.4-&gt;3.5</title>
<g id="a_edge7"><a xlink:title="Move">
<path fill="none" stroke="transparent" stroke-width="12" d="M174.09,-95C180.05,-95 186.01,-95 191.97,-95"></path>
</a>
</g>
</g>
<!-- 3.2 -->

<!-- 3.2 -->
<g id="edge8" class="edge order">
<title>3.5-&gt;3.6</title>
<g id="a_edge8"><a xlink:title="Move">
<path fill="none" stroke="transparent" stroke-width="12" d="M212.05,-95C217.93,-95 223.81,-95 229.69,-95"></path>
</a>
</g>
</g>
<!-- 3.3 -->

<g id="edge38" class="edge link">
<title>3.5-&gt;4.5</title>
<path fill="none" stroke="grey" stroke-width="1.5" d="M202,-84.98C202,-82.91 202,-80.72 202,-78.69"></path>
<polygon fill="grey" stroke="grey" stroke-width="1.5" points="203.75,-78.33 202,-73.33 200.25,-78.33 203.75,-78.33"></polygon>
</g>
<g id="edge14" class="edge order">
<title>5.5-&gt;5.6</title>
<g id="a_edge14"><a xlink:title="Move">
<path fill="none" stroke="transparent" stroke-width="12" d="M212.05,-44C217.93,-44 223.81,-44 229.69,-44"></path>
</a>
</g>
</g>
<!-- 3.6 -->
<g id="node5" class="node environment">
<title>3.6</title>
<polygon fill="white" stroke="grey" points="252,-106 230,-106 230,-84 252,-84 252,-106"></polygon>
<text text-anchor="middle" x="241" y="-92" font-family="Helvetica,sans-Serif" font-size="10.00" fill="#595959">E</text>
<use xlink:href="#env" x="233" y="-103" width="16" height="16"></use></g>
<!-- 1.1 -->
<g id="node18" class="node token">
<title>1.1</title>
<ellipse fill="#b30000" stroke="white" stroke-width="0" cx="126" cy="-146" rx="10" ry="10"></ellipse>
<text text-anchor="middle" x="126" y="-143" font-family="Helvetica,sans-Serif" font-size="10.00" fill="#000000">1</text>
</g>
<!-- 3.1 -->
<g id="node19" class="node token">
<title>3.1</title>
<ellipse fill="#b30000" stroke="white" stroke-width="0" cx="50" cy="-95" rx="10" ry="10"></ellipse>
<text text-anchor="middle" x="50" y="-92" font-family="Helvetica,sans-Serif" font-size="10.00" fill="#000000">1</text>
</g>
<!-- 3.2 -->
<g id="node20" class="node token">
<title>3.2</title>
<ellipse fill="#b30000" stroke="white" stroke-width="0" cx="88" cy="-95" rx="10" ry="10"></ellipse>
<text text-anchor="middle" x="88" y="-92" font-family="Helvetica,sans-Serif" font-size="10.00" fill="#000000">1</text>
</g>
<!-- 3.3 -->
<g id="node21" class="node token">
<title>3.3</title>
<ellipse fill="#b30000" stroke="white" stroke-width="0" cx="126" cy="-95" rx="10" ry="10"></ellipse>
<text text-anchor="middle" x="126" y="-92" font-family="Helvetica,sans-Serif" font-size="10.00" fill="#000000">1</text>
</g>
<!-- 3.4 -->
<g id="node22" class="node token">
<title>3.4</title>
<ellipse fill="#b30000" stroke="white" stroke-width="0" cx="164" cy="-95" rx="10" ry="10"></ellipse>
<text text-anchor="middle" x="164" y="-92" font-family="Helvetica,sans-Serif" font-size="10.00" fill="#000000">1</text>
</g>
<!-- 3.5 -->
<g id="node23" class="node token">
<title>3.5</title>
<ellipse fill="#b30000" stroke="white" stroke-width="0" cx="202" cy="-95" rx="10" ry="10"></ellipse>
<text text-anchor="middle" x="202" y="-92" font-family="Helvetica,sans-Serif" font-size="10.00" fill="#000000">1</text>
</g>
<!-- 5.1 -->
<g id="node24" class="node token">
<title>5.1</title>
<ellipse fill="#fdd49e" stroke="white" stroke-width="0" cx="50" cy="-44" rx="10" ry="10"></ellipse>
<text text-anchor="middle" x="50" y="-41" font-family="Helvetica,sans-Serif" font-size="10.00" fill="#000000">.2</text>
</g>
<!-- 5.2 -->
<g id="node25" class="node token">
<title>5.2</title>
<ellipse fill="#fdd49e" stroke="white" stroke-width="0" cx="88" cy="-44" rx="10" ry="10"></ellipse>
<text text-anchor="middle" x="88" y="-41" font-family="Helvetica,sans-Serif" font-size="10.00" fill="#000000">.2</text>
</g>
<!-- 5.3 -->
<g id="node26" class="node token">
<title>5.3</title>
<ellipse fill="#fdd49e" stroke="white" stroke-width="0" cx="126" cy="-44" rx="10" ry="10"></ellipse>
<text text-anchor="middle" x="126" y="-41" font-family="Helvetica,sans-Serif" font-size="10.00" fill="#000000">.2</text>
</g>
<!-- 5.4 -->
<g id="node27" class="node token">
<title>5.4</title>
<ellipse fill="#fdd49e" stroke="white" stroke-width="0" cx="164" cy="-44" rx="10" ry="10"></ellipse>
<text text-anchor="middle" x="164" y="-41" font-family="Helvetica,sans-Serif" font-size="10.00" fill="#000000">.2</text>
</g>
<!-- 5.5 -->
<g id="node28" class="node token">
<title>5.5</title>
<ellipse fill="#fdd49e" stroke="white" stroke-width="0" cx="202" cy="-44" rx="10" ry="10"></ellipse>
<text text-anchor="middle" x="202" y="-41" font-family="Helvetica,sans-Serif" font-size="10.00" fill="#000000">.2</text>
</g>
<!-- F0 -->
<g id="node29" class="node state">
<title>F0</title>
<polygon fill="#fdd49e" stroke="white" stroke-width="0" points="234.5,-22 205.5,-22 205.5,0 234.5,0 234.5,-22"></polygon>
<text text-anchor="middle" x="220" y="-8" font-family="Helvetica,sans-Serif" font-size="10.00" fill="#000000">20%</text>
</g>
<!-- F1 -->
<g id="node30" class="node state">
<title>F1</title>
<polygon fill="#fdd49e" stroke="white" stroke-width="0" points="187.5,-22 158.5,-22 158.5,0 187.5,0 187.5,-22"></polygon>
<text text-anchor="middle" x="173" y="-8" font-family="Helvetica,sans-Serif" font-size="10.00" fill="#000000">20%</text>
</g>
<!-- F2  -->
<g id="node31" class="node state">
<title>F2</title>
<polygon fill="#fdd49e" stroke="white" stroke-width="0" points="140.5,-22 111.5,-22 111.5,0 140.5,0 140.5,-22"></polygon>
<text text-anchor="middle" x="126" y="-8" font-family="Helvetica,sans-Serif" font-size="10.00" fill="#000000">20%</text>
</g>
<!-- F3 -->
<g id="node32" class="node state">
<title>F3</title>
<polygon fill="#fdd49e" stroke="white" stroke-width="0" points="93.5,-22 64.5,-22 64.5,0 93.5,0 93.5,-22"></polygon>
<text text-anchor="middle" x="79" y="-8" font-family="Helvetica,sans-Serif" font-size="10.00" fill="#000000">20%</text>
</g>
<!-- F4 -->
<g id="node33" class="node state">
<title>F4</title>
<polygon fill="#fdd49e" stroke="white" stroke-width="0" points="46.5,-22 17.5,-22 17.5,0 46.5,0 46.5,-22"></polygon>
<text text-anchor="middle" x="32" y="-8" font-family="Helvetica,sans-Serif" font-size="10.00" fill="#000000">20%</text>
</g>
</g>
<defs>
        <marker id="end-arrow" viewBox="0 -5 10 10" refX="6" markerWidth="3" markerHeight="3" orient="auto">
          <path d="M0,-5L10,0L0,5" fill="gray"></path>
        </marker>
        <symbol id="obs" viewBox="0 0 24 24">
          <rect x="0" y="0" width="24" height="24" fill="white"></rect>
          <path fill-rule="evenodd" clip-rule="evenodd" d="M16 7C16 9.20914 14.2091 11 12 11C9.79086 11 8 9.20914 8 7C8 4.79086 9.79086 3 12 3C14.2091 3 16 4.79086 16 7ZM14 7C14 8.10457 13.1046 9 12 9C10.8954 9 10 8.10457 10 7C10 5.89543 10.8954 5 12 5C13.1046 5 14 5.89543 14 7Z" fill="grey"></path>
          <path d="M16 15C16 14.4477 15.5523 14 15 14H9C8.44772 14 8 14.4477 8 15V21H6V15C6 13.3431 7.34315 12 9 12H15C16.6569 12 18 13.3431 18 15V21H16V15Z" fill="grey"></path>
        </symbol>
        <symbol id="env" viewBox="0 0 24 24">
          <rect x="0" y="0" width="24" height="24" fill="white"></rect>
          <path fill-rule="evenodd" clip-rule="evenodd" d="M12 16C14.2091 16 16 14.2091 16 12C16 9.79086 14.2091 8 12 8C9.79086 8 8 9.79086 8 12C8 14.2091 9.79086 16 12 16ZM12 18C15.3137 18 18 15.3137 18 12C18 8.68629 15.3137 6 12 6C8.68629 6 6 8.68629 6 12C6 15.3137 8.68629 18 12 18Z" fill="grey"></path>
          <path fill-rule="evenodd" clip-rule="evenodd" d="M11 0H13V4.06189C12.6724 4.02104 12.3387 4 12 4C11.6613 4 11.3276 4.02104 11 4.06189V0ZM7.0943 5.68018L4.22173 2.80761L2.80752 4.22183L5.6801 7.09441C6.09071 6.56618 6.56608 6.0908 7.0943 5.68018ZM4.06189 11H0V13H4.06189C4.02104 12.6724 4 12.3387 4 12C4 11.6613 4.02104 11.3276 4.06189 11ZM5.6801 16.9056L2.80751 19.7782L4.22173 21.1924L7.0943 18.3198C6.56608 17.9092 6.09071 17.4338 5.6801 16.9056ZM11 19.9381V24H13V19.9381C12.6724 19.979 12.3387 20 12 20C11.6613 20 11.3276 19.979 11 19.9381ZM16.9056 18.3199L19.7781 21.1924L21.1923 19.7782L18.3198 16.9057C17.9092 17.4339 17.4338 17.9093 16.9056 18.3199ZM19.9381 13H24V11H19.9381C19.979 11.3276 20 11.6613 20 12C20 12.3387 19.979 12.6724 19.9381 13ZM18.3198 7.0943L21.1923 4.22183L19.7781 2.80762L16.9056 5.6801C17.4338 6.09071 17.9092 6.56608 18.3198 7.0943Z" fill="grey"></path>
        </symbol>
      </defs></svg>
