<?xml version="1.0" encoding="UTF-8" standalone="no"?>
<svg
   width="30.666687"
   height="30.666647"
   viewBox="0 0 23.000015 22.999985"
   version="1.1"
   id="svg516"
   xmlns:xlink="http://www.w3.org/1999/xlink"
   xmlns="http://www.w3.org/2000/svg"
   xmlns:svg="http://www.w3.org/2000/svg">
  <g
     id="node6"
     class="node environment"
     transform="translate(-191.5,55.499996)">
    <polygon
       fill="#ffffff"
       stroke="#808080"
       points="214,-33 214,-55 192,-55 192,-33 "
       id="polygon357" />
    <text
       text-anchor="middle"
       x="203"
       y="-41"
       font-family="Helvetica, sans-Serif"
       font-size="10px"
       fill="#595959"
       id="text359">E</text>
    <use
       xlink:href="#env"
       x="195"
       y="-52"
       width="16"
       height="16"
       id="use361" />
  </g>
  <defs
     id="defs514">
    <symbol
       id="env"
       viewBox="0 0 24 24">
      <rect
         x="0"
         y="0"
         width="24"
         height="24"
         fill="#ffffff"
         id="rect507" />
      <path
         fill-rule="evenodd"
         clip-rule="evenodd"
         d="m 12,16 c 2.2091,0 4,-1.7909 4,-4 0,-2.20914 -1.7909,-4 -4,-4 -2.20914,0 -4,1.79086 -4,4 0,2.2091 1.79086,4 4,4 z m 0,2 c 3.3137,0 6,-2.6863 6,-6 0,-3.31371 -2.6863,-6 -6,-6 -3.31371,0 -6,2.68629 -6,6 0,3.3137 2.68629,6 6,6 z"
         fill="#808080"
         id="path509" />
      <path
         fill-rule="evenodd"
         clip-rule="evenodd"
         d="m 11,0 h 2 V 4.06189 C 12.6724,4.02104 12.3387,4 12,4 11.6613,4 11.3276,4.02104 11,4.06189 Z M 7.0943,5.68018 4.22173,2.80761 2.80752,4.22183 5.6801,7.09441 C 6.09071,6.56618 6.56608,6.0908 7.0943,5.68018 Z M 4.06189,11 H 0 v 2 H 4.06189 C 4.02104,12.6724 4,12.3387 4,12 4,11.6613 4.02104,11.3276 4.06189,11 Z M 5.6801,16.9056 2.80751,19.7782 4.22173,21.1924 7.0943,18.3198 C 6.56608,17.9092 6.09071,17.4338 5.6801,16.9056 Z M 11,19.9381 V 24 h 2 V 19.9381 C 12.6724,19.979 12.3387,20 12,20 11.6613,20 11.3276,19.979 11,19.9381 Z m 5.9056,-1.6182 2.8725,2.8725 1.4142,-1.4142 -2.8725,-2.8725 c -0.4106,0.5282 -0.886,1.0036 -1.4142,1.4142 z M 19.9381,13 H 24 V 11 H 19.9381 C 19.979,11.3276 20,11.6613 20,12 c 0,0.3387 -0.021,0.6724 -0.0619,1 z M 18.3198,7.0943 21.1923,4.22183 19.7781,2.80762 16.9056,5.6801 c 0.5282,0.41061 1.0036,0.88598 1.4142,1.4142 z"
         fill="#808080"
         id="path511" />
    </symbol>
  </defs>
</svg>
